<svg viewBox="0 -53 512.00097 512" xmlns="http://www.w3.org/2000/svg"><path d="m245.882812 233.050781c0-7.25-2.203124-13.996093-5.972656-19.605469 3.769532-5.605468 5.972656-12.351562 5.972656-19.605468 0-7.25-2.203124-13.996094-5.972656-19.605469 3.769532-5.605469 5.972656-12.351563 5.972656-19.605469 0-19.414062-15.792968-35.210937-35.210937-35.210937h-20.394531c.402344-2.21875.613281-4.5.613281-6.832031 0-17.152344-12.214844-32.011719-29.042969-35.324219l-37.457031-7.375c-20.445313-4.035157-41.835937 1.957031-57.214844 16.019531l-36.664062 33.511719h-14.90625c-8.617188 0-15.605469 6.988281-15.605469 15.605469v156.839843c0 8.621094 6.988281 15.609375 15.605469 15.609375h184.664062c19.414063 0 35.210938-15.796875 35.210938-35.214844 0-4.300781-.777344-8.421874-2.195313-12.238281 7.699219-6.460937 12.597656-16.152343 12.597656-26.96875zm-35.210937-43.207031c2.207031 0 4 1.792969 4 3.996094 0 2.207031-1.796875 4-4 4-8.617187 0-15.605469 6.988281-15.605469 15.605468 0 8.621094 6.988282 15.609376 15.605469 15.609376 2.207031 0 4 1.792968 4 3.996093s-1.796875 4-4 4h-10.402344c-8.621093 0-15.609375 6.988281-15.609375 15.605469 0 8.621094 6.988282 15.605469 15.609375 15.605469 2.203125 0 3.996094 1.796875 3.996094 4s-1.792969 3.996093-3.996094 3.996093h-169.054687v-125.625h5.355468c3.898438 0 7.652344-1.457031 10.527344-4.089843l41.136719-37.597657c8.097656-7.402343 19.359375-10.558593 30.121094-8.433593l37.460937 7.378906c2.234375.4375 3.859375 2.414063 3.859375 4.695313 0 3.765624-3.066406 6.832031-6.832031 6.832031h-23.539062c-8.621094 0-15.609376 6.988281-15.609376 15.609375 0 8.617187 6.988282 15.605468 15.609376 15.605468h81.367187c2.203125 0 3.996094 1.792969 3.996094 4 0 2.203126-1.792969 3.996094-3.996094 3.996094-8.621094 0-15.605469 6.988282-15.605469 15.609375 0 8.617188 6.984375 15.605469 15.605469 15.605469zm0 0"/><path d="m496.394531 119.417969h-14.90625l-36.660156-33.511719c-15.382813-14.058594-36.773437-20.050781-57.214844-16.019531l-37.457031 7.375c-16.832031 3.316406-29.046875 18.171875-29.046875 35.324219 0 2.332031.210937 4.617187.617187 6.832031h-20.398437c-19.417969 0-35.210937 15.796875-35.210937 35.214843 0 7.25 2.199218 13.996094 5.972656 19.605469-3.773438 5.605469-5.972656 12.351563-5.972656 19.601563 0 7.253906 2.199218 14 5.972656 19.605468-3.773438 5.609376-5.972656 12.355469-5.972656 19.605469 0 10.816407 4.898437 20.507813 12.597656 26.972657-1.417969 3.8125-2.195313 7.9375-2.195313 12.238281 0 19.417969 15.796875 35.214843 35.214844 35.214843h184.660156c8.617188 0 15.605469-6.988281 15.605469-15.609374v-156.839844c0-8.621094-6.988281-15.609375-15.605469-15.609375zm-15.609375 156.839843h-169.054687c-2.203125 0-3.996094-1.792968-3.996094-3.996093 0-2.207031 1.792969-4 3.996094-4 8.621093 0 15.609375-6.988281 15.609375-15.605469 0-8.621094-6.988282-15.609375-15.609375-15.609375h-10.402344c-2.207031 0-4-1.792969-4-3.996094s1.792969-4 4-4c8.617187 0 15.605469-6.988281 15.605469-15.605469 0-8.621093-6.988282-15.605468-15.605469-15.605468-2.207031 0-4-1.796875-4-4s1.792969-3.996094 4-3.996094c8.617187 0 15.605469-6.988281 15.605469-15.609375 0-8.617187-6.988282-15.605469-15.605469-15.605469-2.207031 0-4-1.792968-4-4 0-2.203125 1.792969-4 4-4h81.367187c8.617188 0 15.605469-6.984375 15.605469-15.605468 0-8.617188-6.988281-15.605469-15.605469-15.605469h-23.539062c-3.765625 0-6.832031-3.066407-6.832031-6.835938 0-2.277343 1.625-4.253906 3.859375-4.695312l37.460937-7.378907c10.769531-2.117187 22.023438 1.035157 30.121094 8.433594l41.132813 37.601563c2.878906 2.628906 6.632812 4.085937 10.53125 4.085937h5.355468zm0 0"/><path d="m256.617188 61.128906c8.621093 0 15.609374-6.988281 15.609374-15.609375v-29.910156c0-8.621094-6.988281-15.609375-15.609374-15.609375-8.617188 0-15.605469 6.988281-15.605469 15.609375v29.910156c0 8.621094 6.988281 15.609375 15.605469 15.609375zm0 0"/><path d="m201.59375 61.796875c2.886719 5.03125 8.144531 7.847656 13.554688 7.847656 2.632812 0 5.300781-.667969 7.75-2.070312 7.476562-4.289063 10.0625-13.828125 5.773437-21.304688l-14.878906-25.949219c-4.289063-7.476562-13.828125-10.0625-21.304688-5.777343-7.476562 4.289062-10.0625 13.828125-5.773437 21.304687zm0 0"/><path d="m289.101562 67.574219c2.449219 1.402343 5.117188 2.070312 7.75 2.070312 5.410157 0 10.667969-2.816406 13.554688-7.847656l14.878906-25.949219c4.289063-7.476562 1.703125-17.015625-5.773437-21.304687-7.476563-4.285157-17.015625-1.703125-21.304688 5.777343l-14.882812 25.949219c-4.285157 7.476563-1.699219 17.015625 5.777343 21.304688zm0 0"/><path d="m255.382812 345.808594c-8.621093 0-15.609374 6.988281-15.609374 15.605468v29.914063c0 8.621094 6.988281 15.609375 15.609374 15.609375 8.621094 0 15.605469-6.988281 15.605469-15.609375v-29.914063c0-8.617187-6.988281-15.605468-15.605469-15.605468zm0 0"/><path d="m310.40625 345.140625c-4.289062-7.480469-13.824219-10.0625-21.304688-5.777344-7.476562 4.289063-10.0625 13.824219-5.773437 21.304688l14.878906 25.949219c2.886719 5.027343 8.144531 7.84375 13.554688 7.84375 2.632812 0 5.300781-.667969 7.75-2.070313 7.476562-4.285156 10.0625-13.824219 5.773437-21.300781zm0 0"/><path d="m222.898438 339.363281c-7.480469-4.285156-17.015626-1.703125-21.304688 5.777344l-14.878906 25.949219c-4.289063 7.476562-1.703125 17.015625 5.773437 21.300781 2.449219 1.40625 5.117188 2.070313 7.75 2.070313 5.410157 0 10.667969-2.816407 13.554688-7.84375l14.878906-25.949219c4.289063-7.480469 1.703125-17.015625-5.773437-21.304688zm0 0"/></svg>